<svg width="372" height="379" viewBox="0 0 372 379" fill="none" xmlns="http://www.w3.org/2000/svg">
<path d="M0.966431 80.7975H99.8353C99.8353 80.7975 90.0374 53.9495 74.9505 53.9495C59.8635 53.9495 55.1345 72.4742 55.1345 72.4742C55.1345 72.4742 44.951 62.4108 36.5948 62.4108C28.2387 62.4108 20.9845 75.7151 20.9845 75.7151C20.9845 75.7151 9.14811 68.5612 0.966431 80.7975Z" fill="white"/>
<path opacity="0.5" d="M234.718 181.431H280.925C280.925 181.431 270.594 166.423 262.468 166.423C254.341 166.423 251.926 176.431 251.926 176.431C251.926 176.431 246.187 171.763 240.907 172.592C235.627 173.421 234.718 181.431 234.718 181.431Z" fill="white"/>
<path d="M281.044 135.027H371.034C371.034 135.027 358.711 107.406 345.524 105.721C332.338 104.036 326.039 126.216 326.039 126.216C326.039 126.216 317.536 118.362 310.842 118.362C304.148 118.362 298.996 128.711 298.996 128.711C298.996 128.711 285.627 121.621 281.044 135.027Z" fill="white"/>
<path opacity="0.5" d="M237.757 79.3607H298.555C298.555 79.3607 288.115 59.372 276.783 59.105C265.452 58.838 259.465 74.2047 259.465 74.2047C259.465 74.2047 241.871 60.0257 237.757 79.3607Z" fill="white"/>
<path opacity="0.5" d="M82.7926 200.149H143.59C143.59 200.149 133.141 180.16 121.809 179.893C110.478 179.626 104.528 195.02 104.528 195.02C104.528 195.02 86.9064 180.814 82.7926 200.149Z" fill="white"/>
<path d="M70.1574 75.8902C70.2135 76.3107 70.1441 76.7384 69.9578 77.1193C69.7715 77.5003 69.4768 77.8172 69.1109 78.0302C68.745 78.2432 68.3243 78.3426 67.902 78.3159C67.4797 78.2892 67.0749 78.1375 66.7385 77.8801C66.4022 77.6227 66.1496 77.2711 66.0125 76.8697C65.8755 76.4683 65.8602 76.0352 65.9687 75.6252C66.0771 75.2151 66.3043 74.8465 66.6217 74.5659C66.939 74.2853 67.3322 74.1053 67.7515 74.0488C68.3137 73.9754 68.882 74.1278 69.3327 74.4727C69.7833 74.8176 70.0797 75.3271 70.1574 75.8902Z" fill="#D2FDFF"/>
<path d="M68.0176 113.29C68.0738 113.71 68.0043 114.138 67.818 114.519C67.6318 114.9 67.337 115.217 66.9711 115.43C66.6052 115.643 66.1845 115.742 65.7622 115.715C65.34 115.688 64.9351 115.537 64.5988 115.279C64.2625 115.022 64.0098 114.67 63.8728 114.269C63.7357 113.868 63.7205 113.435 63.8289 113.024C63.9373 112.614 64.1646 112.246 64.4819 111.965C64.7992 111.685 65.1924 111.505 65.6118 111.448C65.8903 111.411 66.1736 111.428 66.4453 111.501C66.7169 111.573 66.9718 111.698 67.1952 111.869C67.4186 112.04 67.6063 112.253 67.7474 112.497C67.8885 112.741 67.9803 113.01 68.0176 113.29Z" fill="#16133D"/>
<path d="M143.994 158.828C144.012 158.967 144.003 159.109 143.966 159.245C143.93 159.381 143.867 159.509 143.781 159.62C143.695 159.732 143.589 159.825 143.467 159.896C143.345 159.966 143.211 160.011 143.071 160.029C142.932 160.047 142.791 160.038 142.655 160.001C142.519 159.965 142.392 159.901 142.281 159.816C142.17 159.73 142.077 159.623 142.006 159.5C141.936 159.378 141.891 159.244 141.873 159.104C141.837 158.822 141.913 158.537 142.086 158.312C142.259 158.086 142.515 157.939 142.796 157.902C143.077 157.866 143.361 157.943 143.586 158.116C143.811 158.29 143.958 158.546 143.994 158.828Z" fill="#D2FDFF"/>
<path d="M106.382 37.4319C106.411 37.6433 106.377 37.8587 106.284 38.0506C106.191 38.2425 106.043 38.4024 105.859 38.5099C105.675 38.6175 105.464 38.6678 105.251 38.6546C105.039 38.6414 104.835 38.5652 104.666 38.4357C104.497 38.3062 104.37 38.1292 104.301 37.9272C104.232 37.7253 104.225 37.5073 104.28 37.3012C104.335 37.095 104.45 36.9098 104.61 36.7692C104.77 36.6286 104.968 36.5388 105.179 36.5112C105.46 36.4745 105.744 36.5507 105.97 36.7232C106.195 36.8956 106.343 37.1504 106.382 37.4319Z" fill="#D2FDFF"/>
<path d="M239.264 13.3371C239.301 13.6191 239.224 13.9042 239.051 14.1295C238.878 14.3548 238.623 14.502 238.342 14.5386C238.06 14.5752 237.776 14.4983 237.551 14.3248C237.327 14.1513 237.18 13.8953 237.143 13.6133C237.107 13.3313 237.183 13.0462 237.356 12.8209C237.529 12.5956 237.785 12.4484 238.066 12.4118C238.347 12.3751 238.632 12.4521 238.856 12.6256C239.081 12.7991 239.228 13.055 239.264 13.3371Z" fill="#16133D"/>
<path d="M118.503 94.9398C118.536 95.0857 118.539 95.2368 118.51 95.3836C118.481 95.5304 118.423 95.6696 118.338 95.7924C118.253 95.9152 118.143 96.0189 118.016 96.0969C117.888 96.1748 117.746 96.2254 117.598 96.2452C117.451 96.2651 117.3 96.2539 117.157 96.2124C117.014 96.1708 116.881 96.0998 116.766 96.0039C116.652 95.9079 116.559 95.7891 116.492 95.6551C116.426 95.521 116.389 95.3746 116.382 95.2252C116.37 94.9564 116.459 94.6929 116.631 94.4864C116.804 94.28 117.047 94.1457 117.313 94.1099C117.579 94.0741 117.848 94.1395 118.069 94.293C118.289 94.4466 118.444 94.6774 118.503 94.9398Z" fill="#16133D"/>
<path d="M217.014 191.348C217.032 191.487 217.023 191.629 216.986 191.765C216.95 191.901 216.887 192.028 216.801 192.14C216.715 192.252 216.609 192.345 216.487 192.415C216.365 192.486 216.231 192.531 216.092 192.549C215.952 192.567 215.811 192.558 215.675 192.521C215.54 192.484 215.413 192.421 215.301 192.335C215.19 192.249 215.097 192.142 215.027 192.02C214.957 191.898 214.911 191.763 214.893 191.624C214.857 191.342 214.933 191.057 215.106 190.831C215.28 190.606 215.535 190.459 215.816 190.422C216.097 190.386 216.382 190.463 216.606 190.636C216.831 190.81 216.978 191.066 217.014 191.348Z" fill="#455A64"/>
<path d="M65.2991 197.544C65.3264 197.754 65.2911 197.966 65.1978 198.156C65.1044 198.345 64.9571 198.503 64.7745 198.608C64.5919 198.713 64.3823 198.762 64.172 198.748C63.9618 198.734 63.7605 198.658 63.5935 198.529C63.4265 198.4 63.3013 198.225 63.2338 198.025C63.1664 197.824 63.1596 197.609 63.2144 197.405C63.2692 197.201 63.3831 197.018 63.5417 196.879C63.7003 196.739 63.8965 196.651 64.1054 196.623C64.2442 196.604 64.3855 196.613 64.5211 196.649C64.6566 196.684 64.7836 196.747 64.8947 196.833C65.0058 196.919 65.0988 197.026 65.1683 197.148C65.2377 197.27 65.2822 197.405 65.2991 197.544Z" fill="#D2FDFF"/>
<path d="M33.0684 157.079C33.1245 157.499 33.0551 157.927 32.8688 158.308C32.6825 158.689 32.3878 159.006 32.0219 159.219C31.656 159.432 31.2353 159.531 30.813 159.504C30.3908 159.477 29.9859 159.326 29.6496 159.068C29.3132 158.811 29.0606 158.459 28.9236 158.058C28.7865 157.657 28.7712 157.224 28.8797 156.813C28.9881 156.403 29.2153 156.035 29.5327 155.754C29.85 155.474 30.2432 155.294 30.6626 155.237C30.9413 155.198 31.2249 155.215 31.4971 155.287C31.7693 155.359 32.0246 155.484 32.2483 155.655C32.472 155.826 32.6597 156.04 32.8004 156.284C32.9412 156.529 33.0322 156.799 33.0684 157.079Z" fill="#D2FDFF"/>
<path d="M163.443 13.1894C163.499 13.6099 163.43 14.0377 163.243 14.4186C163.057 14.7995 162.762 15.1165 162.396 15.3294C162.03 15.5424 161.61 15.6418 161.188 15.6151C160.765 15.5884 160.36 15.4367 160.024 15.1793C159.688 14.9219 159.435 14.5703 159.298 14.1689C159.161 13.7676 159.146 13.3345 159.254 12.9244C159.363 12.5143 159.59 12.1457 159.907 11.8651C160.225 11.5845 160.618 11.4046 161.037 11.348C161.316 11.3104 161.599 11.3283 161.871 11.4005C162.142 11.4727 162.397 11.5979 162.62 11.7689C162.844 11.9399 163.032 12.1534 163.173 12.3971C163.314 12.6409 163.406 12.9101 163.443 13.1894Z" fill="#D2FDFF"/>
<path d="M308.721 228.94L311.751 227.918C311.751 227.918 309.685 226.85 309.685 223.526C309.685 220.203 312.523 218.923 311.301 215.894L307.922 216.815C308.302 217.605 308.512 218.467 308.539 219.344C308.566 220.221 308.409 221.094 308.078 221.906C307.215 223.803 306.37 226.077 308.721 228.94Z" fill="#D2FDFF"/>
<path d="M57.1911 221.75L54.1976 220.617C54.1976 220.617 55.1158 222.753 53.0406 225.331C50.9653 227.909 47.9259 227.173 46.9893 230.248L50.1756 231.675C50.3788 230.821 50.7584 230.019 51.2899 229.321C51.8213 228.624 52.4928 228.045 53.261 227.624C55.1618 226.675 57.2095 225.451 57.1911 221.75Z" fill="#D2FDFF"/>
<path d="M140.367 80.2819L137.337 79.177C137.337 79.177 138.255 81.3131 136.18 83.891C134.104 86.469 131.065 85.7325 130.128 88.7985L133.315 90.2348C133.516 89.3801 133.895 88.5776 134.427 87.8796C134.959 87.1816 135.631 86.6037 136.4 86.1836C138.338 85.2537 140.385 84.0107 140.367 80.2819Z" fill="#455A64"/>
<path d="M249.365 176.285L246.371 175.161C246.371 175.161 247.289 177.297 245.214 179.875C243.139 182.453 240.099 181.717 239.163 184.783L242.349 186.219C242.551 185.364 242.93 184.562 243.461 183.864C243.993 183.166 244.665 182.588 245.435 182.168C247.354 181.238 249.411 179.995 249.365 176.285Z" fill="#455A64"/>
<path d="M121.727 147.972L122.158 144.805C122.158 144.805 120.322 146.186 117.319 144.713C114.316 143.24 114.436 140.11 111.203 139.879L110.515 143.314C111.385 143.327 112.242 143.523 113.033 143.887C113.823 144.252 114.529 144.778 115.106 145.431C116.493 147.089 118.164 148.82 121.727 147.972Z" fill="#D2FDFF"/>
<path d="M265.674 210.544L266.105 207.368C266.105 207.368 264.269 208.749 261.266 207.276C258.263 205.803 258.383 202.672 255.15 202.442L254.462 205.876C255.332 205.891 256.191 206.087 256.981 206.454C257.772 206.82 258.478 207.348 259.053 208.003C260.384 209.651 262.074 211.382 265.674 210.544Z" fill="#455A64"/>
<path d="M252.744 63.792L253.176 60.6248C253.176 60.6248 251.339 62.0059 248.336 60.5327C245.334 59.0596 245.453 55.9292 242.221 55.699L241.532 59.1332C242.402 59.147 243.26 59.3425 244.05 59.7071C244.841 60.0717 245.547 60.5974 246.123 61.2509C247.473 62.899 249.144 64.6299 252.744 63.792Z" fill="#D2FDFF"/>
<path d="M310.888 78.993L307.527 77.1516C307.527 77.1516 304.772 81.2672 308.078 83.348C308.069 83.3572 307.39 80.6779 310.888 78.993Z" fill="#D2FDFF"/>
<path d="M308.133 88.375L311.678 87.0584C311.678 87.0584 311.889 84.0109 308.051 83.3756C308.069 83.3572 310.475 86.1193 308.133 88.375Z" fill="#D2FDFF"/>
<path d="M131.442 177.712L128.072 175.87C128.072 175.87 125.317 179.995 128.623 182.067C128.623 182.076 127.952 179.406 131.442 177.712Z" fill="#455A64"/>
<path d="M128.714 187.084L132.249 185.759C132.249 185.759 132.46 182.72 128.576 182.076C128.622 182.076 131.028 184.838 128.714 187.084Z" fill="#455A64"/>
<path d="M262.799 56.0671C262.743 55.6462 262.812 55.218 262.999 54.8367C263.185 54.4554 263.48 54.1382 263.847 53.9252C264.213 53.7123 264.634 53.6131 265.057 53.6404C265.48 53.6677 265.885 53.8201 266.221 54.0784C266.557 54.3367 266.809 54.6893 266.945 55.0914C267.082 55.4935 267.096 55.9271 266.986 56.3373C266.876 56.7475 266.647 57.1157 266.329 57.3954C266.01 57.6752 265.616 57.8537 265.196 57.9086C264.635 57.9818 264.067 57.8292 263.618 57.4841C263.169 57.1389 262.875 56.6295 262.799 56.0671Z" fill="#16133D"/>
<path d="M296.619 108.262C296.563 107.842 296.632 107.414 296.818 107.033C297.005 106.652 297.299 106.335 297.665 106.122C298.031 105.909 298.452 105.81 298.874 105.837C299.296 105.863 299.701 106.015 300.037 106.273C300.374 106.53 300.626 106.882 300.764 107.283C300.901 107.684 300.916 108.117 300.807 108.528C300.699 108.938 300.472 109.306 300.154 109.587C299.837 109.867 299.444 110.047 299.024 110.104C298.746 110.141 298.463 110.124 298.191 110.051C297.919 109.979 297.664 109.854 297.441 109.683C297.218 109.512 297.03 109.299 296.889 109.055C296.748 108.811 296.656 108.542 296.619 108.262Z" fill="#D2FDFF"/>
<path d="M287.748 185.621C287.721 185.411 287.756 185.199 287.85 185.009C287.943 184.82 288.09 184.662 288.273 184.557C288.455 184.452 288.665 184.403 288.875 184.417C289.086 184.431 289.287 184.507 289.454 184.636C289.621 184.765 289.746 184.94 289.814 185.141C289.881 185.341 289.888 185.556 289.833 185.76C289.778 185.964 289.664 186.147 289.506 186.287C289.347 186.426 289.151 186.514 288.942 186.542C288.662 186.578 288.379 186.502 288.155 186.329C287.931 186.156 287.785 185.902 287.748 185.621Z" fill="#D2FDFF"/>
<path d="M163.635 151.269L163.195 154.446C163.195 154.446 165.031 153.065 168.034 154.538C171.037 156.011 170.926 159.141 174.159 159.371L174.838 155.937C173.968 155.923 173.111 155.728 172.32 155.363C171.53 154.999 170.823 154.473 170.247 153.82C168.897 152.162 167.235 150.431 163.635 151.269Z" fill="#455A64"/>
<path d="M339.657 187.425L334.561 188.871C334.561 188.871 332.127 182.481 337.187 180.676C337.187 180.639 335.461 184.083 339.657 187.425Z" fill="#455A64"/>
<path d="M338.822 173.928L343.202 176.791C343.202 176.791 342.559 180.962 337.188 180.677C337.188 180.64 341.265 177.684 338.822 173.928Z" fill="#455A64"/>
<path d="M248.447 135.884L243.323 137.366C243.323 137.366 240.899 130.977 245.949 129.172C245.949 129.135 244.232 132.542 248.447 135.884Z" fill="#16133D"/>
<path d="M247.593 122.386L251.973 125.25C251.973 125.25 251.33 129.42 245.949 129.135C245.949 129.135 250.035 126.143 247.593 122.386Z" fill="#16133D"/>
<path d="M74.4091 166.065L69.3036 167.51C69.3036 167.51 66.8794 161.121 71.9298 159.316C71.9298 159.316 70.2035 162.723 74.4091 166.065Z" fill="#16133D"/>
<path d="M73.5736 152.567L77.9537 155.43C77.9537 155.43 77.3017 159.601 71.9299 159.316C71.9299 159.316 76.0162 156.323 73.5736 152.567Z" fill="#16133D"/>
<path d="M288.63 125.6L292 127.441C292 127.441 294.755 123.316 291.449 121.245C291.449 121.235 292.119 123.906 288.63 125.6Z" fill="#455A64"/>
<path d="M291.357 116.19L287.812 117.516C287.812 117.516 287.61 120.554 291.486 121.199C291.449 121.235 289.043 118.473 291.357 116.19Z" fill="#455A64"/>
<path d="M171.469 109.395L174.839 111.236C174.839 111.236 177.594 107.121 174.288 105.04C174.288 105.031 174.986 107.71 171.469 109.395Z" fill="#D2FDFF"/>
<path d="M174.196 100.013L170.652 101.33C170.652 101.33 170.45 104.377 174.325 105.012C174.288 105.031 171.882 102.278 174.196 100.013Z" fill="#D2FDFF"/>
<path d="M200.991 231.159L201.551 234.953C201.551 234.953 206.473 234.667 206.142 230.791C206.207 230.791 204.434 232.936 200.991 231.159Z" fill="#D2FDFF"/>
<path d="M210.11 227.706L206.932 225.662C206.932 225.662 204.38 227.32 206.161 230.791C206.207 230.791 206.914 227.209 210.11 227.706Z" fill="#D2FDFF"/>
<path d="M229.796 163.533C216.169 172.298 192.772 178.08 174.508 176.469C171.635 176.257 168.784 175.804 165.986 175.115C162.231 174.195 158.576 173.154 155.05 172.187C131.579 165.742 111.322 160.218 76.3919 169.766C34.6755 181.164 25.3735 186.339 24.5654 186.449L30.7269 179.719L22.5544 174.609C22.7473 174.609 32.187 169.389 73.2147 158.174C111.286 147.779 134.049 154.013 158.154 160.605C161.643 161.526 165.243 162.548 168.897 163.487C170.314 163.843 171.749 164.126 173.195 164.334C190.568 166.838 215.728 160.651 226.114 152.365C227.205 151.53 228.106 150.472 228.758 149.262L228.933 162.152C229.162 162.345 229.401 162.833 229.796 163.533Z" fill="#D2FDFF"/>
<path opacity="0.2" d="M229.796 163.533C216.169 172.298 192.772 178.08 174.508 176.469C171.635 176.257 168.784 175.804 165.986 175.115C162.231 174.195 158.576 173.154 155.05 172.187C131.579 165.742 111.322 160.218 76.3919 169.766C34.6755 181.164 25.3735 186.339 24.5654 186.449L30.7269 179.719L22.5544 174.609C22.7473 174.609 32.187 169.389 73.2147 158.174C111.286 147.779 134.049 154.013 158.154 160.605C161.643 161.526 165.243 162.548 168.897 163.487C170.314 163.843 171.749 164.126 173.195 164.334C190.568 166.838 215.728 160.651 226.114 152.365C227.205 151.53 228.106 150.472 228.758 149.262L228.933 162.152C229.162 162.345 229.401 162.833 229.796 163.533Z" fill="black"/>
<path d="M227.069 144.787C227.069 144.787 227.28 175.741 221.238 182.425C221.238 182.425 181.377 256 159.899 260.18C141.708 263.724 75.474 214.549 75.474 214.549L96.4195 182.195C96.4195 182.195 107.999 187.848 123.793 196.494C136.832 203.639 148.035 211.732 148.374 211.133C153.315 202.221 173.461 176.892 173.066 175.225C168.705 156.691 181.891 144.842 181.891 144.842L227.069 144.787Z" fill="#16133D"/>
<path d="M221.229 182.425C221.229 182.425 211.44 200.508 198.943 219.254L173.057 175.198C168.714 156.673 181.9 144.814 181.9 144.814H227.078C227.078 144.814 227.271 175.741 221.229 182.425Z" fill="#37474F"/>
<path d="M15.383 208.537C15.9799 206.3 50.7176 154.04 53.3071 152.898C54.2804 152.447 96.4652 182.195 96.4652 182.195L75.5381 214.42L48.6699 197.056C48.6699 197.056 27.0174 210.747 24.0422 211.704C21.067 212.662 14.777 210.765 15.383 208.537Z" fill="#EB9481"/>
<path d="M15.3924 208.537C15.9893 206.3 50.7178 154.04 53.2981 152.898C53.7664 152.677 67.072 161.756 75.0149 167.225L53.5001 200.232L48.6242 197.092C48.6242 197.092 27.0176 210.737 24.0424 211.704C21.0672 212.671 14.7772 210.756 15.3924 208.537Z" fill="white"/>
<path d="M15.2638 208.777C15.8699 206.558 50.479 153.626 53.041 152.475C54.0143 152.033 61.9022 157.336 70.2767 163.956L48.5415 197.636C48.5415 197.636 26.8431 210.968 23.8955 211.944C20.9479 212.92 14.667 211.023 15.2638 208.777Z" fill="#D2FDFF"/>
<path d="M17.8352 209.421C23.8498 200.84 47.2654 165.659 52.5546 156.719C52.5546 156.645 52.5546 156.609 52.4995 156.719C46.3655 165.088 23.2254 200.462 17.6975 209.356C17.5781 209.513 17.7159 209.596 17.8352 209.421Z" fill="#16133D"/>
<path d="M27.9817 209.826C28.6532 208.874 29.1192 207.792 29.35 206.649C29.5809 205.506 29.5714 204.327 29.3224 203.188C28.897 201.133 27.6962 199.322 25.9707 198.133C25.9707 198.133 25.8605 198.188 25.9065 198.234C27.434 199.68 28.4517 201.584 28.8062 203.66C29.1606 205.736 28.8326 207.871 27.8715 209.743C27.8348 209.826 27.9358 209.9 27.9817 209.826Z" fill="#16133D"/>
<path d="M45.851 199.781C48.2201 196.328 49.6802 191.495 48.2752 187.388C48.2201 187.232 47.9998 187.305 47.9814 187.443C47.5492 191.564 46.678 195.626 45.3827 199.56C45.3708 199.619 45.3788 199.68 45.4055 199.733C45.4323 199.787 45.4762 199.83 45.5302 199.855C45.5842 199.881 45.6452 199.887 45.7034 199.874C45.7616 199.86 45.8136 199.828 45.851 199.781Z" fill="#16133D"/>
<path d="M43.0136 201.816C45.3827 198.363 46.8428 193.529 45.4378 189.414C45.3827 189.257 45.1624 189.34 45.144 189.478C44.7107 193.598 43.8395 197.66 42.5453 201.595C42.5334 201.653 42.5414 201.714 42.5681 201.768C42.5949 201.821 42.6388 201.864 42.6928 201.89C42.7469 201.915 42.8079 201.922 42.866 201.908C42.9242 201.895 42.9762 201.862 43.0136 201.816Z" fill="#16133D"/>
<path d="M40.1759 203.777C42.545 200.315 44.0051 195.491 42.6001 191.375C42.545 191.219 42.3247 191.301 42.3063 191.44C41.873 195.557 41.0018 199.616 39.7076 203.547C39.6924 203.606 39.698 203.669 39.7236 203.725C39.7493 203.781 39.7933 203.826 39.8483 203.853C39.9033 203.88 39.9659 203.887 40.0256 203.874C40.0853 203.86 40.1384 203.826 40.1759 203.777Z" fill="#16133D"/>
<path d="M37.3385 205.775C39.7076 202.313 41.1677 197.443 39.7627 193.373C39.7076 193.217 39.4873 193.3 39.4689 193.438C39.0356 197.555 38.1644 201.614 36.8702 205.545C36.855 205.604 36.8606 205.667 36.8862 205.723C36.9119 205.779 36.9559 205.824 37.0109 205.851C37.0659 205.878 37.1285 205.886 37.1882 205.872C37.2479 205.858 37.301 205.824 37.3385 205.775Z" fill="#16133D"/>
<path d="M59.3401 164.453C61.9296 160.531 55.8508 156.489 53.2613 160.421C50.6718 164.352 56.7506 168.385 59.3401 164.453Z" fill="#16133D"/>
<path d="M52.6366 209.771C55.2811 208.97 55.327 205.784 54.5373 203.694C53.4048 200.857 51.6976 198.286 49.5237 196.144C49.2298 195.831 48.9176 195.546 48.6054 195.224C48.4617 195.114 48.3237 194.997 48.1922 194.874L48.0728 194.8L47.7331 194.524C47.7191 194.514 47.7032 194.508 47.6865 194.506C47.6698 194.504 47.6529 194.505 47.6369 194.511C47.621 194.516 47.6064 194.525 47.5944 194.537C47.5825 194.549 47.5733 194.563 47.5678 194.579C47.4704 194.545 47.3653 194.539 47.2647 194.562C47.164 194.584 47.0718 194.635 46.9985 194.708C46.956 194.746 46.9224 194.793 46.9002 194.845C46.878 194.898 46.8676 194.955 46.8699 195.012C46.8699 196.015 46.8699 197.047 46.8699 198.078C46.8606 198.256 46.8606 198.434 46.8699 198.612C46.7394 201.123 47.0312 203.637 47.7331 206.051C48.4126 208.132 50.1481 210.507 52.6366 209.771ZM48.0453 200.564C48.0453 199.698 47.9902 198.833 47.9626 197.976C47.9351 197.12 47.9075 196.522 47.8708 195.794C47.8708 195.693 47.8708 195.583 47.8708 195.491C47.8708 195.398 47.8708 195.297 47.8708 195.214L48.0361 195.417C48.385 195.886 48.7248 196.338 49.0829 196.789C50.0308 198.01 50.9107 199.282 51.7183 200.601C52.283 201.511 52.7862 202.458 53.2242 203.436C53.867 204.965 54.4914 210.342 50.4695 208.15C48.2656 206.963 48.1738 202.663 48.0912 200.545L48.0453 200.564Z" fill="#16133D"/>
<path d="M47.4396 195.454C47.4391 195.471 47.4425 195.488 47.4497 195.504C47.4569 195.519 47.4676 195.533 47.4809 195.544C47.4943 195.554 47.51 195.562 47.5267 195.565C47.5435 195.569 47.5608 195.569 47.5774 195.564C47.6873 195.545 47.795 195.514 47.8988 195.472C47.9402 195.488 47.9859 195.488 48.0273 195.472C48.2201 195.445 48.4085 195.392 48.5875 195.316C49.2631 195.124 49.9231 194.881 50.5617 194.588C53.1294 193.509 55.4671 191.946 57.4486 189.985C59.028 188.392 60.2585 185.464 58.1649 183.669C58.0892 183.605 58.0094 183.547 57.9261 183.494C55.9886 182.085 53.5736 183.494 52.1687 185.04C50.7659 186.699 49.6234 188.561 48.7803 190.565C48.1651 191.955 47.5866 193.327 46.9438 194.717C46.9022 194.798 46.883 194.888 46.8883 194.979C46.8936 195.07 46.9232 195.158 46.9739 195.233C47.0246 195.308 47.0946 195.368 47.1766 195.407C47.2585 195.446 47.3494 195.462 47.4396 195.454ZM50.3046 190.252C51.2229 188.337 53.0594 184.451 55.5938 184.239C56.1748 184.16 56.7663 184.233 57.3109 184.451C59.2576 185.372 57.1915 188.714 56.1906 189.662C55.3975 190.387 54.557 191.058 53.6746 191.67C53.0135 192.139 52.3431 192.59 51.6361 192.968C50.5066 193.649 49.3496 194.266 48.2018 194.92C48.1283 194.92 48.064 195.012 47.9906 195.039C48.0351 194.975 48.0691 194.903 48.0916 194.828C48.2018 194.643 48.2936 194.478 48.3854 194.284C49.0374 192.959 49.6435 191.596 50.3046 190.252Z" fill="#16133D"/>
<path d="M361.603 341.847C360.162 343.689 307.527 377.691 304.671 377.755C303.597 377.755 276.784 333.644 276.784 333.644L308.813 312.467L326.535 339.168C326.535 339.168 351.787 335.292 354.891 335.596C357.994 335.899 363.045 340.043 361.603 341.847Z" fill="#EB9481"/>
<path d="M361.594 341.847C360.161 343.689 307.518 377.691 304.662 377.755C304.148 377.755 295.562 364.119 290.447 355.925L323.312 334.26L326.526 339.094C326.526 339.094 351.769 335.218 354.881 335.522C357.994 335.826 363.045 340.052 361.594 341.847Z" fill="white"/>
<path d="M361.805 341.672C360.373 343.514 307.582 378.169 304.772 378.197C303.698 378.197 298.583 370.196 293.533 360.777L326.856 338.588C326.856 338.588 352.062 335.025 355.148 335.328C358.233 335.632 363.228 339.868 361.805 341.672Z" fill="#D2FDFF"/>
<path d="M359.702 340.052C350.776 345.521 315.313 368.419 306.902 374.495C306.838 374.551 306.902 374.597 306.902 374.551C315.864 369.33 351.153 346.147 359.757 340.199C359.977 340.07 359.895 339.923 359.702 340.052Z" fill="#16133D"/>
<path d="M350.565 335.623C349.575 336.227 348.719 337.029 348.052 337.98C347.385 338.93 346.922 340.009 346.69 341.148C346.266 343.2 346.648 345.337 347.756 347.114C347.756 347.169 347.884 347.114 347.857 347.049C347.031 345.114 346.853 342.963 347.349 340.918C347.846 338.873 348.99 337.044 350.611 335.706C350.703 335.679 350.63 335.577 350.565 335.623Z" fill="#16133D"/>
<path d="M330.171 337.685C326.627 339.914 323.348 343.79 323.018 348.09C323.018 348.255 323.238 348.274 323.312 348.145C325.348 344.541 327.765 341.167 330.52 338.081C330.561 338.032 330.584 337.97 330.583 337.906C330.582 337.842 330.558 337.78 330.516 337.732C330.474 337.684 330.416 337.653 330.352 337.645C330.289 337.636 330.225 337.65 330.171 337.685Z" fill="#16133D"/>
<path d="M333.578 336.985C330.025 339.214 326.756 343.099 326.425 347.389C326.425 347.555 326.645 347.574 326.719 347.454C328.753 343.848 331.166 340.471 333.918 337.381C333.955 337.333 333.974 337.273 333.972 337.212C333.97 337.15 333.948 337.092 333.908 337.045C333.868 336.999 333.814 336.968 333.754 336.957C333.694 336.946 333.632 336.956 333.578 336.985Z" fill="#16133D"/>
<path d="M336.975 336.295C333.421 338.523 330.152 342.4 329.822 346.699C329.822 346.865 330.042 346.883 330.116 346.755C332.149 343.151 334.563 339.778 337.315 336.691C337.352 336.642 337.371 336.583 337.369 336.521C337.367 336.46 337.345 336.402 337.305 336.355C337.265 336.309 337.211 336.278 337.151 336.267C337.091 336.256 337.029 336.266 336.975 336.295Z" fill="#16133D"/>
<path d="M340.373 335.595C336.819 337.823 333.55 341.709 333.22 345.999C333.22 346.165 333.44 346.183 333.514 346.064C335.547 342.458 337.961 339.081 340.713 335.991C340.75 335.943 340.769 335.883 340.767 335.821C340.765 335.76 340.742 335.702 340.703 335.655C340.663 335.609 340.608 335.578 340.548 335.567C340.488 335.556 340.426 335.566 340.373 335.595Z" fill="#16133D"/>
<path d="M303.762 364.69C299.822 367.25 303.762 373.391 307.728 370.822C311.695 368.253 307.701 362.121 303.762 364.69Z" fill="#16133D"/>
<path d="M327.931 325.817C325.176 325.486 323.881 328.395 323.771 330.633C323.684 333.685 324.225 336.722 325.36 339.555C325.507 339.96 325.681 340.346 325.856 340.724C325.948 340.88 326.021 341.046 326.094 341.203L326.177 341.322L326.379 341.709C326.389 341.722 326.403 341.733 326.418 341.741C326.433 341.748 326.449 341.752 326.466 341.752C326.483 341.752 326.5 341.748 326.515 341.741C326.53 341.733 326.543 341.722 326.554 341.709C326.629 341.781 326.724 341.83 326.827 341.85C326.929 341.87 327.035 341.859 327.132 341.819C327.185 341.802 327.234 341.773 327.275 341.735C327.316 341.697 327.349 341.65 327.371 341.599C327.747 340.678 328.17 339.757 328.583 338.781C328.666 338.625 328.73 338.468 328.803 338.302C329.92 336.05 330.653 333.625 330.97 331.13C331.154 329.012 330.511 326.112 327.931 325.817ZM328.436 336.093C328.124 336.903 327.793 337.704 327.518 338.496C327.242 339.288 326.985 339.858 326.728 340.54C326.728 340.632 326.655 340.742 326.627 340.825L326.535 341.083C326.535 341 326.489 340.917 326.471 340.834C326.333 340.273 326.214 339.72 326.067 339.159C325.673 337.662 325.366 336.143 325.149 334.61C324.997 333.549 324.914 332.478 324.901 331.406C324.901 329.749 326.48 324.575 329.29 328.184C330.805 330.136 329.198 334.122 328.436 336.093Z" fill="#16133D"/>
<path d="M327.003 341.018C327.01 341.003 327.014 340.986 327.014 340.969C327.013 340.951 327.009 340.935 327.001 340.919C326.993 340.904 326.981 340.891 326.967 340.881C326.953 340.871 326.937 340.864 326.92 340.862C326.81 340.849 326.7 340.849 326.59 340.862C326.57 340.852 326.548 340.847 326.525 340.847C326.503 340.847 326.481 340.852 326.461 340.862C326.275 340.815 326.084 340.791 325.892 340.788C325.195 340.69 324.492 340.647 323.789 340.659C321.01 340.615 318.248 341.105 315.653 342.105C313.578 342.933 311.282 345.125 312.485 347.629C312.529 347.718 312.578 347.804 312.632 347.887C313.853 349.949 316.636 349.609 318.527 348.808C320.484 347.84 322.281 346.576 323.853 345.06C324.974 344.038 326.057 342.97 327.168 341.976C327.266 341.928 327.346 341.849 327.395 341.751C327.445 341.654 327.462 341.543 327.443 341.435C327.424 341.327 327.371 341.228 327.292 341.153C327.213 341.078 327.111 341.031 327.003 341.018ZM322.311 344.646C320.685 346.027 317.453 348.854 315.066 348.043C314.501 347.889 313.988 347.587 313.578 347.169C312.145 345.557 315.414 343.302 316.673 342.832C317.688 342.487 318.724 342.21 319.776 342.004C320.566 341.838 321.365 341.718 322.164 341.617C323.477 341.451 324.781 341.35 326.094 341.203H326.342C326.276 341.25 326.215 341.302 326.158 341.359C325.984 341.488 325.837 341.608 325.671 341.746C324.542 342.685 323.449 343.679 322.311 344.646Z" fill="#16133D"/>
<path d="M309.785 313.461L276.811 333.597C276.811 333.597 243.193 298.214 235.489 267.665C233.166 258.458 193.92 201.097 180.752 186.725C163.424 167.804 180.89 144.759 180.89 144.759H228.749L228.988 162.078C232.753 168.2 309.785 313.461 309.785 313.461Z" fill="#16133D"/>
<path d="M219.062 153.939C220.916 155.045 222.678 156.298 224.332 157.686C226.008 159.049 227.574 160.542 229.016 162.151C227.16 161.045 225.397 159.789 223.745 158.395C222.07 157.035 220.504 155.545 219.062 153.939Z" fill="#37474F"/>
<path d="M210.926 55.7261C210.339 52.0433 209.558 48.1671 204.067 46.3809C192.286 42.5599 183.865 58.6632 170.266 63.8192C153.884 70.0616 147.309 79.9777 153.976 86.3491C161.423 93.4846 175.252 89.5071 186.693 69.7762C193.856 57.4479 200.238 54.3359 203.176 54.3819C205.297 54.3819 208.272 58.6908 208.272 58.6908L210.926 55.7261Z" fill="#16133D"/>
<path d="M190.807 63.1013C189.53 64.9427 188.474 66.9775 187.354 68.9386C186.234 70.8998 185.15 72.8793 183.993 74.8036C182.836 76.7279 181.615 78.6245 180.265 80.4107C178.951 82.2114 177.463 83.8769 175.821 85.3826C174.208 86.9003 172.319 88.0914 170.256 88.8905C168.139 89.6247 165.912 89.986 163.672 89.9585C161.407 89.9369 159.177 89.3951 157.152 88.3749C156.129 87.8642 155.175 87.2236 154.315 86.469C153.889 86.0895 153.487 85.6836 153.112 85.2537C152.721 84.8305 152.393 84.353 152.139 83.8358C152.603 84.9077 153.281 85.8729 154.131 86.6716C154.953 87.5064 155.879 88.2306 156.886 88.826C157.914 89.4156 159.008 89.8793 160.146 90.2071C161.287 90.5305 162.46 90.722 163.645 90.778C164.819 90.8366 165.997 90.7842 167.161 90.6214L168.034 90.4833L168.888 90.3084C169.466 90.1824 170.036 90.0225 170.596 89.8296C172.793 88.9996 174.807 87.7487 176.528 86.1468C179.813 82.9605 182.569 79.2678 184.691 75.2087C185.802 73.22 186.812 71.1944 187.795 69.1596C188.777 67.1248 189.741 65.0901 190.807 63.1013Z" fill="#16133D"/>
<path d="M210.953 56.7944C210.844 55.227 210.535 53.6801 210.035 52.1909C209.528 50.7372 208.697 49.4186 207.606 48.3353C206.514 47.252 205.191 46.4325 203.736 45.9392C203.014 45.6928 202.27 45.5171 201.514 45.4144C200.768 45.2902 200.011 45.244 199.255 45.2763C197.748 45.3928 196.272 45.7697 194.893 46.3904C193.502 47.0448 192.182 47.8408 190.954 48.7658C188.456 50.6072 186.142 52.7433 183.745 54.7965C181.359 56.9008 178.817 58.8213 176.142 60.5417C173.397 62.1476 170.533 63.539 167.575 64.7034C164.645 65.8097 161.792 67.1108 159.035 68.598C157.662 69.3532 156.39 70.2814 155.252 71.3601L154.425 72.1795C154.168 72.4834 153.939 72.7964 153.691 73.1003L153.324 73.5606L153.011 74.0578L152.396 75.0706C153.759 72.1682 155.96 69.7432 158.714 68.11C161.446 66.5076 164.281 65.0867 167.198 63.8563C170.064 62.6179 172.844 61.1876 175.518 59.575C178.13 57.8681 180.61 55.966 182.937 53.885C185.343 51.8594 187.657 49.7049 190.283 47.8543C191.592 46.9039 192.995 46.0923 194.471 45.4328C195.976 44.7808 197.589 44.4155 199.227 44.3556C200.047 44.3518 200.866 44.432 201.67 44.595C202.468 44.7403 203.251 44.956 204.011 45.2395C205.54 45.7971 206.914 46.7131 208.017 47.9111C209.121 49.1091 209.923 50.5544 210.357 52.1264C210.775 53.6462 210.976 55.2179 210.953 56.7944Z" fill="#16133D"/>
<path d="M214.691 55.9381C214.581 54.7964 213.589 53.4338 212.854 53.3233C212.12 53.2128 206.959 56.2143 206.656 57.669C206.353 59.1238 208.924 60.0537 208.924 60.0537L214.691 55.9381Z" fill="#D2FDFF"/>
<path d="M223.736 95.4919C230.356 80.7605 236.766 69.2424 246.692 51.804C251.853 42.7258 260.833 28.1049 263.138 24.1827C266.178 19.0635 287.885 38.9141 285.433 42.1366C283.836 44.2634 274.736 57.4664 265.948 66.8025C254.663 78.7717 246.334 89.894 233.735 102.268C224.213 111.65 219.365 105.224 223.736 95.4919Z" fill="#EB9481"/>
<path d="M279.327 48.4436C284.772 46.3259 301.291 34.6329 304.028 31.6497C306.764 28.6666 314.028 19.349 311.934 17.0104C309.84 14.6718 307.499 17.213 307.499 17.213C307.499 17.213 310.254 12.4345 307.618 10.6483C305.525 9.23039 302.044 12.637 302.044 12.637C302.044 12.637 304.799 7.24165 301.953 5.80534C299.372 4.48872 296.544 9.1199 296.544 9.1199C296.544 9.1199 298.381 4.36902 295.626 3.59562C292.348 2.67491 289.198 10.8693 285.892 13.9813C285.148 14.6902 264.249 27.3408 264.249 27.3408L279.327 48.4436Z" fill="#EB9481"/>
<path d="M296.416 8.87124C293.413 14.7822 291.999 17.1577 286.885 20.9326C286.784 21.0062 286.885 21.172 286.976 21.0983C292.33 17.8482 294.212 15.1781 296.719 8.97252C296.839 8.66868 296.563 8.59502 296.416 8.87124Z" fill="#16133D"/>
<path d="M301.98 12.6278C298.95 18.6861 296.7 20.9786 291.604 25.3428C291.531 25.4073 291.604 25.527 291.705 25.4717C297.04 21.6139 299.969 19.128 302.164 12.683C302.293 12.3884 302.118 12.3516 301.98 12.6278Z" fill="#16133D"/>
<path d="M307.215 17.4334C303.9 23.0866 301.577 25.8672 296.113 29.4764C296.092 29.4948 296.078 29.5199 296.074 29.5475C296.069 29.575 296.075 29.6033 296.089 29.6273C296.103 29.6513 296.125 29.6697 296.151 29.6791C296.177 29.6885 296.206 29.6885 296.232 29.6789C302.164 26.5485 305.084 23.105 307.38 17.5531C307.564 17.1756 307.453 17.0744 307.215 17.4334Z" fill="#16133D"/>
<path d="M260.282 29.4492C260.282 29.4492 262.532 20.5644 270.943 17.2958C274.332 15.97 279.079 5.86978 282.21 6.07234C285.709 6.30252 283.202 15.4452 278.941 20.3618C278.941 20.3618 284.625 29.4216 280.778 34.3382C279.942 35.4063 273.836 38.7853 272.312 38.4722L260.282 29.4492Z" fill="#EB9481"/>
<path d="M278.684 21.0153C281.026 24.468 282.651 29.7069 280.989 33.5186C280.977 33.5406 280.974 33.5665 280.981 33.5907C280.988 33.6149 281.004 33.6353 281.026 33.6475C281.048 33.6597 281.073 33.6627 281.098 33.6558C281.122 33.6489 281.142 33.6327 281.154 33.6107C283.496 29.7713 281.659 23.6854 279.391 20.7207C278.95 20.1591 278.078 20.1314 278.684 21.0153Z" fill="#16133D"/>
<path d="M230.155 137.2L228.722 144.787H181.891C181.891 144.787 189.237 106.31 206.363 94.8935C214.939 89.185 222.763 91.6894 226.564 98.0976C227.529 99.718 237.326 116.696 237.051 124.798C236.794 132.017 230.155 137.2 230.155 137.2Z" fill="#EB9481"/>
<path d="M237.06 124.835C236.812 131.566 230.944 136.556 230.219 137.154L184.563 134.07C185.628 130.332 187.005 125.949 188.759 121.429C193.295 121.592 197.837 121.386 202.34 120.812C204.333 120.434 208.768 113.777 214.443 114.459C220.118 115.14 225.793 120.812 225.793 120.812C228.284 118.138 231.512 116.27 235.067 115.444C236.279 118.952 237.151 122.331 237.06 124.835Z" fill="#16133D"/>
<path d="M226.573 98.088C226.33 97.6738 226.064 97.2741 225.774 96.8911C227.124 100.813 229.677 109.459 226.39 110.315C222.781 111.236 213.699 97.1213 210.889 92.6006C209.296 93.1785 207.779 93.9484 206.372 94.8932C193.231 103.502 182.221 134.594 180.872 144.759H228.731L230.154 137.172C230.154 137.172 236.793 131.989 237.06 124.807C237.335 116.696 227.537 99.7177 226.573 98.088ZM208.732 116.917C206.307 122.174 200.789 126.253 197.116 125.755C194.113 125.341 192.708 121.253 193.902 116.033C195.959 107.139 204.71 94.0277 208.695 94.3407C213.268 94.6998 212.753 108.161 208.732 116.917Z" fill="#455A64"/>
<path d="M215.013 130.829C217.575 131.266 220.095 131.929 222.542 132.809C223.764 133.269 224.948 133.803 226.142 134.355C226.73 134.641 227.326 134.889 227.978 135.138C228.593 135.422 229.246 135.615 229.916 135.709C229.971 135.709 229.962 135.819 229.916 135.819C229.282 135.818 228.65 135.766 228.024 135.663C227.419 135.532 226.823 135.356 226.243 135.138C225.003 134.687 223.782 134.162 222.57 133.692C220.072 132.772 217.584 131.851 215.04 131.078C214.847 131.05 214.893 130.801 215.013 130.829Z" fill="#16133D"/>
<path d="M208.511 133.186C210.636 133.043 212.768 133.043 214.893 133.186C215.958 133.269 217.005 133.425 218.061 133.609C218.557 133.701 219.062 133.803 219.558 133.913C220.053 134.024 220.641 134.245 221.192 134.355C221.256 134.355 221.247 134.475 221.192 134.466C220.669 134.374 220.127 134.401 219.603 134.346L218.015 134.199C216.959 134.107 215.903 134.024 214.838 133.913C212.726 133.692 210.614 133.508 208.493 133.379C208.373 133.388 208.401 133.186 208.511 133.186Z" fill="#16133D"/>
<path d="M185.27 128.941C189.809 129.188 194.358 129.188 198.897 128.941C207.648 128.343 217.519 126.75 217.721 126.879C218.088 127.118 235.333 126.713 235.333 126.713L236.665 127.468L236.876 126.547L235.691 125.903C236.11 124.582 236.205 123.18 235.967 121.815C235.563 119.651 232.294 110.766 232.202 110.518C232.11 110.269 226.454 97.4253 226.38 97.3516C226.307 97.278 225.774 96.8821 225.774 96.8821L231.412 110.592C229.552 111.003 227.665 111.277 225.765 111.411C223.447 111.299 221.136 111.069 218.841 110.72C218.841 110.72 214.801 100.077 214.158 98.9813C213.515 97.8857 211.33 92.4258 211.11 92.5363C210.902 92.6056 210.69 92.664 210.476 92.7113C210.476 92.7113 213.782 100.998 214.259 101.845C214.737 102.692 217.822 111.337 217.822 111.337C217.822 111.337 218.483 118.556 218.511 119.854C218.336 121.775 218.048 123.684 217.648 125.572C217.648 125.572 207.822 127.017 199.145 127.763C191.909 128.398 185.573 128.361 185.481 128.361C185.389 128.361 185.27 128.941 185.27 128.941Z" fill="white"/>
<path d="M223.277 115.14L223.69 124.016C223.69 124.485 223.461 124.854 223.148 124.872C222.836 124.89 222.57 124.541 222.552 124.071L222.203 116.705L221.808 117.064C221.735 117.146 221.633 117.196 221.523 117.202C221.409 117.194 221.301 117.151 221.211 117.081C221.121 117.011 221.054 116.915 221.018 116.807C220.927 116.624 220.891 116.418 220.915 116.215C220.94 116.012 221.023 115.82 221.156 115.665L222.368 114.505C222.368 114.505 222.368 114.505 222.423 114.505H222.478C222.478 114.505 222.478 114.505 222.524 114.505C222.548 114.495 222.574 114.495 222.598 114.505H222.735C222.735 114.505 222.781 114.505 222.8 114.505H222.845C222.845 114.505 222.891 114.551 222.91 114.551C222.925 114.554 222.941 114.554 222.956 114.551V114.597C222.956 114.597 222.956 114.597 223.002 114.652C223.047 114.707 223.002 114.652 223.002 114.716L223.047 114.772C223.047 114.772 223.047 114.818 223.047 114.845C223.047 114.873 223.047 114.91 223.047 114.919C223.05 114.944 223.05 114.968 223.047 114.993C223.034 115.028 223.034 115.068 223.047 115.103L223.277 115.14Z" fill="#16133D"/>
<path d="M226.72 114.974L227.143 123.859C227.143 124.319 226.913 124.697 226.601 124.715C226.289 124.734 226.022 124.375 225.995 123.905L225.655 116.539L225.251 116.908C225.217 116.948 225.175 116.98 225.127 117.002C225.08 117.024 225.028 117.036 224.976 117.037C224.861 117.032 224.75 116.991 224.66 116.92C224.569 116.849 224.503 116.751 224.47 116.641C224.377 116.459 224.339 116.253 224.361 116.05C224.384 115.847 224.467 115.655 224.599 115.499L225.82 114.348C225.82 114.348 225.82 114.348 225.866 114.348H225.931C225.954 114.34 225.98 114.34 226.004 114.348H226.16C226.17 114.344 226.181 114.342 226.192 114.342C226.203 114.342 226.214 114.344 226.224 114.348C226.224 114.348 226.27 114.348 226.289 114.348L226.335 114.394L226.38 114.459C226.384 114.477 226.384 114.496 226.38 114.514L226.426 114.569C226.426 114.569 226.426 114.569 226.426 114.615C226.432 114.639 226.432 114.664 226.426 114.689C226.429 114.713 226.429 114.738 226.426 114.762C226.426 114.762 226.426 114.818 226.426 114.836C226.42 114.869 226.42 114.904 226.426 114.937L226.72 114.974Z" fill="#16133D"/>
<path d="M232.661 115.011L230.503 124.034C230.43 124.347 230.237 124.54 229.998 124.549C229.922 124.556 229.845 124.54 229.778 124.503C229.623 124.378 229.507 124.211 229.444 124.022C229.38 123.833 229.372 123.629 229.42 123.435L231.256 115.609L228.603 115.729C228.29 115.729 228.015 115.361 227.997 114.91C227.978 114.458 228.217 114.072 228.52 114.063L232.055 113.897C232.088 113.888 232.123 113.888 232.156 113.897C232.236 113.919 232.311 113.956 232.377 114.007V114.053C232.383 114.071 232.383 114.091 232.377 114.109L232.423 114.164V114.228C232.424 114.253 232.424 114.277 232.423 114.302V114.376C232.423 114.376 232.423 114.431 232.423 114.449C232.419 114.474 232.419 114.498 232.423 114.523C232.432 114.633 232.432 114.744 232.423 114.854C232.671 114.919 232.671 114.965 232.661 115.011Z" fill="#16133D"/>
<path d="M214.387 93.1718C214.562 94.2122 219.034 101.191 223.735 101.274C225.26 101.274 225.765 92.9324 225.765 92.9324L225.939 92.3155L228.418 83.7897L218.694 76.5989L217.28 75.6782C217.28 75.6782 216.757 78.0537 216.132 81.0276C216.132 81.1657 216.077 81.3038 216.04 81.4511C216.004 81.5984 215.967 81.7733 215.939 81.9299C215.838 82.3718 215.737 82.8506 215.645 83.2741C215.554 83.6976 215.508 83.9554 215.453 84.3145C215.398 84.6736 215.324 85.0327 215.251 85.401C214.789 87.9689 214.501 90.565 214.387 93.1718Z" fill="#EB9481"/>
<path d="M216.133 81.0092C216.851 83.4945 218.1 85.7933 219.794 87.7458C221.487 89.6982 223.584 91.2576 225.94 92.3155L228.419 83.7897L218.695 76.5989L217.28 75.6782C217.28 75.6782 216.757 78.0352 216.133 81.0092Z" fill="#16133D"/>
<path d="M235.636 63.7549C243.248 77.363 235.976 83.4674 233.047 85.1062C230.393 86.5978 221.109 91.3395 212.184 78.5968C203.258 65.8541 207.115 58.0004 213.019 54.2716C218.924 50.5427 228.024 50.156 235.636 63.7549Z" fill="#EB9481"/>
<path d="M231.917 62.6408C231.585 62.7703 231.245 62.878 230.898 62.963C230.552 63.1284 230.161 63.1738 229.787 63.0919C229.675 63.0443 229.581 62.9606 229.521 62.8539C229.462 62.7473 229.439 62.6237 229.457 62.5027C229.531 62.2728 229.664 62.0666 229.843 61.905C230.022 61.7433 230.24 61.6319 230.476 61.582C230.943 61.4027 231.46 61.4027 231.927 61.582C232.025 61.6313 232.108 61.7073 232.165 61.8014C232.223 61.8955 232.253 62.0039 232.252 62.1142C232.251 62.2246 232.219 62.3324 232.16 62.4255C232.101 62.5186 232.017 62.5932 231.917 62.6408Z" fill="#16133D"/>
<path d="M223.038 67.7139C223.329 67.504 223.606 67.2732 223.864 67.0234C224.192 66.8263 224.444 66.5248 224.58 66.1671C224.603 66.0456 224.583 65.9201 224.525 65.8113C224.466 65.7025 224.372 65.6169 224.259 65.5687C224.025 65.4991 223.776 65.4949 223.54 65.5565C223.304 65.6182 223.089 65.7434 222.918 65.9185C222.509 66.2104 222.226 66.6487 222.129 67.1431C222.113 67.2557 222.13 67.3704 222.178 67.4734C222.226 67.5765 222.303 67.6634 222.399 67.7237C222.495 67.7841 222.606 67.8152 222.72 67.8135C222.833 67.8118 222.944 67.7772 223.038 67.7139Z" fill="#16133D"/>
<path d="M230.476 76.8934C230.801 77.0706 231.177 77.1292 231.541 77.0591C231.899 76.8866 232.213 76.6347 232.459 76.3225C232.459 76.3225 232.533 76.3225 232.523 76.3225C232.483 76.5734 232.377 76.8089 232.215 77.0047C232.054 77.2006 231.843 77.3497 231.605 77.4366C231.386 77.4791 231.159 77.4554 230.953 77.3686C230.747 77.2817 230.571 77.1356 230.448 76.9486C230.356 76.9302 230.421 76.8749 230.476 76.8934Z" fill="#16133D"/>
<path d="M232.478 71.3783C232.478 71.3783 233.442 72.6581 233.8 73.3118C233.8 73.367 233.699 73.4867 233.479 73.6248C232.973 74.0415 232.363 74.3102 231.715 74.4012C231.067 74.4921 230.406 74.4019 229.806 74.1404C229.793 74.13 229.783 74.1159 229.778 74.0999C229.774 74.084 229.774 74.0669 229.779 74.051C229.784 74.0351 229.793 74.0211 229.806 74.0107C229.819 74.0004 229.835 73.9943 229.852 73.9931C230.998 74.1003 232.148 73.8322 233.13 73.2289C233.075 73.0263 231.413 71.0928 231.514 71.0284C232.043 70.7913 232.602 70.6272 233.176 70.5404C231.257 67.7783 228.915 65.4213 227.042 62.6867C227.026 62.6668 227.018 62.6417 227.02 62.6162C227.022 62.5908 227.033 62.567 227.052 62.5496C227.07 62.5322 227.095 62.5224 227.12 62.5222C227.145 62.522 227.17 62.5315 227.189 62.5486C229.777 65.0348 232.112 67.7737 234.158 70.7246C234.416 71.0744 232.836 71.3414 232.478 71.3783Z" fill="#16133D"/>
<path d="M232.716 73.8367C232.613 74.4434 232.357 75.0138 231.973 75.494C231.753 75.7476 231.462 75.9275 231.137 76.0096C230.43 76.1753 230.109 75.6136 229.962 75.0888C229.881 74.7887 229.841 74.479 229.842 74.1681C230.811 74.3711 231.819 74.2548 232.716 73.8367Z" fill="#16133D"/>
<path d="M231.973 75.4756C231.754 75.7293 231.462 75.9092 231.137 75.9912C230.43 76.157 230.109 75.5953 229.962 75.0705C230.294 74.9044 230.673 74.854 231.037 74.9274C231.401 75.0007 231.73 75.1936 231.973 75.4756Z" fill="#FF9CBD"/>
<path d="M224.966 70.8444C224.964 70.9745 224.936 71.1028 224.884 71.2219C224.85 71.3212 224.795 71.4116 224.721 71.4865C224.648 71.5614 224.559 71.6189 224.461 71.6547C223.855 71.8941 223.295 71.4153 222.955 70.8444C222.955 70.8444 222.955 70.7708 222.955 70.7892C223.35 70.9641 223.791 71.1299 224.094 70.9089C224.284 70.7136 224.415 70.4675 224.47 70.2C224.614 70.4307 224.78 70.6465 224.966 70.8444Z" fill="#16133D"/>
<path d="M224.572 70.8444C224.456 70.552 224.425 70.2332 224.48 69.9237C224.516 69.76 224.586 69.6055 224.684 69.4694C224.781 69.3333 224.906 69.2185 225.049 69.1319C225.201 69.055 225.37 69.0149 225.54 69.0149C225.711 69.0149 225.879 69.055 226.032 69.1319C226.301 69.259 226.537 69.4483 226.72 69.6843C226.83 69.8236 226.928 69.9714 227.014 70.1262C227.203 70.446 227.316 70.8052 227.345 71.1758C227.223 70.9385 227.078 70.7135 226.913 70.5037C226.76 70.315 226.594 70.1366 226.417 69.9697C226.059 69.6383 225.628 69.4357 225.315 69.6383C225.14 69.7545 225.009 69.9276 224.946 70.1287C224.882 70.3298 224.89 70.5467 224.966 70.7431C225.083 71.2433 225.249 71.7306 225.462 72.1978C225.062 71.8242 224.757 71.3602 224.572 70.8444Z" fill="#16133D"/>
<path d="M233.332 65.624C233.444 65.6859 233.565 65.7323 233.69 65.7621C233.792 65.786 233.898 65.7878 234.001 65.7671C234.104 65.7465 234.201 65.7039 234.287 65.6424C234.511 65.4234 234.649 65.1309 234.676 64.8181C234.703 64.5054 234.617 64.1934 234.433 63.939C234.433 63.939 234.378 63.8746 234.369 63.939C234.296 64.3718 234.195 64.8598 233.846 64.961C233.578 65.0182 233.3 64.9925 233.047 64.8874C233.17 65.1211 233.265 65.3682 233.332 65.624Z" fill="#16133D"/>
<path d="M233.533 65.3016C233.352 65.0607 233.111 64.8705 232.836 64.7492C232.679 64.6905 232.511 64.6644 232.344 64.6723C232.177 64.6802 232.013 64.722 231.862 64.7952C231.712 64.8761 231.583 64.9904 231.485 65.1293C231.386 65.2682 231.32 65.4279 231.293 65.5962C231.248 65.9054 231.276 66.2208 231.375 66.517C231.44 66.6827 231.513 66.8484 231.587 67.0049C231.754 67.3379 231.996 67.6278 232.294 67.852C232.154 67.621 232.043 67.3736 231.963 67.1154C231.884 66.8874 231.822 66.6534 231.78 66.4157C231.706 65.9277 231.78 65.495 232.11 65.3108C232.303 65.2277 232.519 65.2135 232.721 65.2704C232.923 65.3274 233.1 65.4521 233.221 65.6239C233.568 65.9934 233.875 66.3975 234.139 66.83C234.063 66.279 233.855 65.7547 233.533 65.3016Z" fill="#16133D"/>
<path d="M218.823 55.4225C219.752 56.4493 220.35 57.7327 220.54 59.1054C220.687 63.0092 216.509 64.1601 215.876 66.066C215.242 67.9719 216.95 70.0343 216.473 71.7652C215.802 74.159 214.177 73.5514 214.498 74.7575C214.82 75.9636 215.894 79.7754 214.755 80.9355C213.617 82.0956 195.353 62.5212 213.654 53.8481C213.654 53.8481 215.591 51.3806 220.412 51.4635C227.326 51.5832 231.918 58.1847 231.918 58.1847C231.232 58.3695 230.516 58.4072 229.815 58.2952C228.557 57.9913 227.822 57.6415 226.932 57.4757C225.527 57.2271 225.205 58.1018 223.773 57.89C221.56 57.5494 218.823 55.4225 218.823 55.4225Z" fill="#16133D"/>
<path d="M218.254 54.7043C219.002 55.451 219.662 56.2822 220.219 57.1811C220.815 58.0269 221.167 59.0206 221.238 60.0537C221.168 61.0892 220.72 62.0625 219.98 62.7882C219.292 63.5524 218.401 64.1324 217.676 64.9887C217.299 65.4258 217.048 65.9573 216.95 66.5263C216.905 67.0861 216.971 67.6492 217.143 68.1836C217.52 69.1395 217.628 70.181 217.455 71.1943C217.329 71.6829 217.099 72.1386 216.783 72.5308C216.466 72.9231 216.069 73.2428 215.619 73.4685C214.7 73.9472 213.58 74.2143 212.91 75.0797C213.654 74.2695 214.746 74.159 215.72 73.6894C216.23 73.4729 216.686 73.1461 217.056 72.7323C217.426 72.3185 217.7 71.8279 217.859 71.2956C218.1 70.2184 218.017 69.0937 217.62 68.0639C217.473 67.5877 217.417 67.0879 217.455 66.5907C217.552 66.1116 217.774 65.6668 218.098 65.3018C218.741 64.5191 219.631 63.9115 220.357 63.092C220.732 62.6855 221.042 62.2226 221.275 61.7202C221.531 61.2163 221.654 60.6554 221.633 60.0905C221.518 58.9974 221.101 57.9581 220.43 57.089C219.803 56.2091 219.073 55.4084 218.254 54.7043Z" fill="#16133D"/>
<path d="M219.062 55.3394C219.69 56.1093 220.419 56.7906 221.229 57.3649C222.052 57.982 223.04 58.3408 224.066 58.3961C224.566 58.3906 225.065 58.335 225.554 58.2304C225.996 58.1532 226.45 58.2011 226.867 58.3685C227.289 58.6283 227.735 58.8472 228.198 59.0222C228.683 59.1578 229.192 59.1799 229.686 59.0867C229.205 59.0811 228.73 58.9778 228.29 58.7828C227.852 58.5743 227.437 58.3213 227.051 58.0278C226.574 57.7777 226.031 57.6843 225.499 57.7608C225.032 57.8498 224.559 57.896 224.085 57.8989C223.142 57.8239 222.234 57.5068 221.449 56.9782C220.62 56.4828 219.822 55.9354 219.062 55.3394Z" fill="#16133D"/>
<path d="M215.297 78.0259C215.297 78.0259 210.356 74.7481 208.759 76.6908C207.161 78.6335 212.11 84.2499 214.874 84.1947C215.228 84.2121 215.582 84.1574 215.914 84.0341C216.247 83.9107 216.551 83.7212 216.808 83.4768C217.066 83.2325 217.271 82.9385 217.412 82.6125C217.553 82.2865 217.627 81.9352 217.629 81.5798L215.297 78.0259Z" fill="#EB9481"/>
<path d="M210.219 78.2653C210.173 78.2653 210.219 78.339 210.219 78.339C212.175 78.339 213.681 79.5727 214.948 80.9446C214.783 80.8139 214.592 80.7207 214.388 80.6714C214.183 80.6221 213.971 80.6179 213.765 80.659C213.559 80.7002 213.364 80.7857 213.194 80.9097C213.024 81.0338 212.883 81.1933 212.781 81.3773C212.781 81.4326 212.781 81.4786 212.863 81.451C213.12 81.2446 213.433 81.1217 213.762 81.0987C214.09 81.0757 214.417 81.1536 214.7 81.3221C215.176 81.6177 215.619 81.9634 216.022 82.3533C216.16 82.473 216.399 82.2796 216.27 82.1323C215.471 79.9226 212.634 77.5656 210.219 78.2653Z" fill="#16133D"/>
<path d="M237.427 67.5576C238.403 69.5199 238.995 71.6513 239.172 73.8369C239.264 74.937 239.218 76.0444 239.034 77.133C238.944 77.6801 238.822 78.2212 238.667 78.7535C238.493 79.284 238.287 79.8036 238.052 80.3095C237.566 81.309 236.949 82.2381 236.215 83.0716C235.462 83.8799 234.607 84.5857 233.671 85.1709C231.803 86.3214 229.68 86.9919 227.492 87.1228C228.551 86.9301 229.585 86.6213 230.577 86.202C232.553 85.4286 234.323 84.2057 235.747 82.6297C236.439 81.8419 237.02 80.962 237.473 80.0149C238.38 78.1008 238.797 75.99 238.685 73.8737C238.662 72.8062 238.542 71.743 238.327 70.6972C238.11 69.6287 237.809 68.5789 237.427 67.5576Z" fill="#16133D"/>
<path d="M203.231 107.056C203.011 106.696 202.79 106.337 202.561 105.978C203.993 107.433 205.481 108.814 207.024 110.149C207.024 110.149 207.116 110.149 207.079 110.094C205.564 108.345 204.021 106.632 202.414 104.966C201.652 104.183 200.917 103.373 200.128 102.609C199.338 101.844 198.291 100.942 197.483 100.04C197.382 99.9292 197.207 100.04 197.308 100.178C198.107 101.034 198.824 101.964 199.595 102.857C200.366 103.75 200.972 104.367 201.689 105.094C201.824 105.378 201.974 105.655 202.139 105.923C202.414 106.356 202.689 106.779 202.993 107.194C203.599 108.013 204.241 108.814 204.829 109.615C204.296 108.823 203.755 107.903 203.231 107.056Z" fill="#16133D"/>
<path d="M209.347 94.2029C202.322 78.5507 196.436 67.2536 185.903 48.7381C180.394 39.0982 173.47 27.5617 171.019 23.4C167.795 17.9586 144.747 38.9877 147.355 42.4588C149.045 44.7237 154.646 52.0342 164.536 63.7825C175.812 77.1605 185.362 88.2919 198.741 101.44C208.842 111.356 213.993 104.533 209.347 94.2029Z" fill="#EB9481"/>
<path d="M153.057 47.7069C147.272 45.4604 129.743 33.086 126.832 29.8727C123.921 26.6594 116.217 16.8262 118.439 14.3403C120.661 11.8544 123.15 14.552 123.15 14.552C123.15 14.552 120.23 9.47891 123.021 7.58224C125.243 6.07227 128.935 9.69068 128.935 9.69068C128.935 9.69068 126.033 3.96384 129.036 2.43546C131.791 1.04518 134.784 5.95258 134.784 5.95258C134.784 5.95258 132.837 0.916277 135.702 0.0784282C139.183 -0.915942 142.553 7.81242 146.033 11.127C146.822 11.882 168.989 25.306 168.989 25.306L153.057 47.7069Z" fill="#EB9481"/>
<path d="M134.903 5.70405C138.099 11.9833 139.605 14.4877 145.004 18.5112C145.105 18.5848 145.004 18.7598 144.894 18.6861C139.21 15.2334 137.217 12.3976 134.555 5.79612C134.463 5.48308 134.757 5.40022 134.903 5.70405Z" fill="#16133D"/>
<path d="M129.008 9.68131C132.176 16.1263 134.61 18.5478 140.027 23.179C140.101 23.2434 140.027 23.3815 139.917 23.3263C134.261 19.2199 131.139 16.5775 128.815 9.73656C128.669 9.43272 128.861 9.38668 129.008 9.68131Z" fill="#16133D"/>
<path d="M123.416 14.7819C126.933 20.785 129.403 23.7405 135.206 27.5706C135.231 27.5897 135.248 27.6172 135.255 27.6481C135.261 27.6789 135.255 27.7109 135.24 27.738C135.224 27.7652 135.199 27.7856 135.169 27.7955C135.139 27.8053 135.107 27.804 135.078 27.7916C128.779 24.4678 125.675 20.8034 123.242 14.9016C123.076 14.5057 123.196 14.4044 123.416 14.7819Z" fill="#16133D"/>
<path d="M173.277 27.5432C173.277 27.5432 170.89 18.1059 161.964 14.6532C158.356 13.2537 153.314 2.52741 150.027 2.73918C146.354 2.98777 148.971 12.6921 153.498 17.9125C153.498 17.9125 147.456 27.5248 151.57 32.7544C152.488 33.8869 158.916 37.4685 160.55 37.1462L173.277 27.5432Z" fill="#EB9481"/>
<path d="M153.737 18.5939C151.257 22.2767 149.522 27.801 151.294 31.8614C151.307 31.8858 151.311 31.9145 151.303 31.9413C151.295 31.968 151.277 31.9906 151.253 32.0041C151.228 32.0175 151.2 32.0207 151.173 32.0129C151.146 32.0051 151.124 31.987 151.11 31.9626C148.631 27.8839 150.578 21.4205 152.993 18.2808C153.452 17.6732 154.379 17.6732 153.737 18.5939Z" fill="#16133D"/>
<path d="M228.758 146.84C217.629 141.528 185.747 130.672 163.966 125.397C144.472 120.692 124.325 127.478 104.849 134.033C92.5349 138.176 80.9097 142.089 69.6335 143.13C25.3827 147.218 10.9293 115.692 9.94678 114.348L18.1193 116.392L19.5609 107.24C20.3874 108.364 31.2044 134.659 68.55 131.179C78.4396 130.258 89.422 126.575 101.056 122.653C121.157 115.886 143.939 108.216 166.767 113.722C189.347 119.163 223.993 129.982 232.101 135.294L228.758 146.84Z" fill="#D2FDFF"/>
<path d="M182.56 139.548C177.969 139.732 173.378 139.824 168.787 139.898C164.195 139.972 159.604 139.972 155.013 140.008C150.421 140.045 145.83 140.009 141.239 139.898L134.343 139.769C132.047 139.695 129.751 139.649 127.456 139.548C129.751 139.447 132.047 139.401 134.343 139.318L141.239 139.189C145.83 139.115 150.421 139.125 155.013 139.088C159.604 139.051 164.195 139.088 168.787 139.198C173.378 139.309 177.96 139.355 182.56 139.548Z" fill="#16133D"/>
<path d="M253.506 30.4158C248.914 30.5999 244.323 30.692 239.732 30.7656C235.14 30.8393 230.549 30.8301 225.958 30.8669C221.367 30.9037 216.775 30.8669 212.184 30.7656L205.288 30.6367C202.992 30.5631 200.697 30.517 198.392 30.4158C200.697 30.3053 202.983 30.2592 205.288 30.1856L212.184 30.0567C216.775 29.983 221.367 29.983 225.958 29.9554C230.549 29.9278 235.14 29.9554 239.732 30.0567C244.323 30.158 248.905 30.2224 253.506 30.4158Z" fill="#16133D"/>
<path d="M260.742 35.995C257.73 36.1884 254.727 36.2712 251.715 36.3449C248.703 36.4186 245.701 36.4462 242.698 36.4554C239.695 36.4646 236.674 36.4554 233.671 36.3541L229.163 36.2252C227.666 36.1424 226.16 36.1055 224.654 35.995C226.16 35.8938 227.666 35.8477 229.163 35.7741L233.681 35.6452C236.683 35.5623 239.695 35.5439 242.707 35.5347C245.719 35.5255 248.722 35.5347 251.724 35.6452C254.727 35.7556 257.73 35.8109 260.742 35.995Z" fill="#16133D"/>
<path d="M63.9953 206.603C59.9641 206.787 55.9238 206.88 51.8926 206.953C47.8615 207.027 43.8211 207.027 39.79 207.064C35.7588 207.101 31.7185 207.064 27.6782 206.953L21.636 206.824C19.6159 206.751 17.5957 206.705 15.5847 206.603C17.5957 206.502 19.6159 206.456 21.636 206.373L27.6873 206.244C31.7277 206.171 35.7588 206.18 39.7992 206.143C43.8395 206.106 47.8707 206.143 51.9018 206.253C55.933 206.364 59.9641 206.419 63.9953 206.603Z" fill="#16133D"/>
<path d="M90.6707 198.308C86.6304 198.492 82.5993 198.584 78.5589 198.658C74.5186 198.731 70.4874 198.731 66.4563 198.768C62.4251 198.805 58.3848 198.768 54.3445 198.658L48.2931 198.529C46.273 198.455 44.262 198.409 42.2418 198.308C44.262 198.197 46.273 198.16 48.2931 198.078L54.3445 197.949C58.3848 197.875 62.4159 197.884 66.4563 197.847C70.4966 197.811 74.5278 197.847 78.5589 197.949C82.5901 198.05 86.6304 198.133 90.6707 198.308Z" fill="#16133D"/>
<path d="M190.834 151.398C184.407 151.591 177.979 151.674 171.551 151.748L152.268 151.858L132.984 151.757L123.361 151.628C120.147 151.545 116.933 151.508 113.728 151.398C116.942 151.297 120.156 151.251 123.361 151.177L132.984 151.048L152.268 150.938L171.551 151.048C178.006 151.122 184.416 151.177 190.834 151.398Z" fill="#16133D"/>
<path d="M289.373 361.928C284.726 362.121 280.08 362.204 275.434 362.277C270.787 362.351 266.132 362.351 261.485 362.388C256.839 362.425 252.193 362.388 247.546 362.277L240.567 362.149C238.244 362.075 235.921 362.029 233.598 361.928C235.921 361.826 238.244 361.78 240.567 361.697L247.546 361.568C252.193 361.504 256.839 361.504 261.485 361.467C266.132 361.43 270.787 361.467 275.434 361.578C280.08 361.688 284.726 361.734 289.373 361.928Z" fill="#16133D"/>
<path d="M275.865 367.94C269.299 368.133 262.725 368.226 256.159 368.299L236.444 368.4L216.738 368.299L206.885 368.17C203.598 368.097 200.32 368.051 197.032 367.94C200.32 367.839 203.598 367.793 206.885 367.719L216.738 367.59L236.444 367.48L256.159 367.59C262.725 367.664 269.299 367.756 275.865 367.94Z" fill="#16133D"/>
<path d="M151.451 144.041C145.941 144.225 140.367 144.317 134.83 144.391C129.293 144.465 123.747 144.456 118.21 144.502C112.673 144.548 107.126 144.502 101.58 144.391L93.2699 144.262C90.5152 144.189 87.7604 144.142 85.0056 144.041C87.7604 143.931 90.5152 143.885 93.2699 143.811L101.58 143.682C107.09 143.608 112.664 143.618 118.21 143.581C123.756 143.544 129.284 143.581 134.83 143.682C140.377 143.783 145.914 143.811 151.451 144.041Z" fill="#16133D"/>
</svg>
